HIERARCHY
ROOT Hips
{
	OFFSET 0.000000 0.000000 0.000000
	CHANNELS 6 Xposition Yposition Zposition Zrotation Yrotation Xrotation 
	JOINT LHipJoint
	{
		OFFSET 0.000000 0.000000 0.000000
		CHANNELS 3 Zrotation Yrotation Xrotation
		JOINT LeftUpLeg
		{
			OFFSET 1.363060 -1.794630 0.839290
			CHANNELS 3 Zrotation Yrotation Xrotation
			JOINT LeftLeg
			{
				OFFSET 2.448110 -6.726130 0.000000
				CHANNELS 3 Zrotation Yrotation Xrotation
				JOINT LeftFoot
				{
					OFFSET 2.562200 -7.039590 0.000000
					CHANNELS 3 Zrotation Yrotation Xrotation
					JOINT LeftToeBase
					{
						OFFSET 0.157640 -0.433110 2.322550
						CHANNELS 3 Zrotation Yrotation Xrotation
						End Site
						{
							OFFSET 0.000000 0.000000 0.000000
						}
					}
				}
			}
		}
	}
	JOINT RHipJoint
	{
		OFFSET 0.000000 0.000000 0.000000
		CHANNELS 3 Zrotation Yrotation Xrotation
		JOINT RightUpLeg
		{
			OFFSET -1.305520 -1.794630 0.839290
			CHANNELS 3 Zrotation Yrotation Xrotation
			JOINT RightLeg
			{
				OFFSET -2.542530 -6.985550 0.000000
				CHANNELS 3 Zrotation Yrotation Xrotation
				JOINT RightFoot
				{
					OFFSET -2.568260 -7.056230 0.000000
					CHANNELS 3 Zrotation Yrotation Xrotation
					JOINT RightToeBase
					{
						OFFSET -0.164730 -0.452590 2.363150
						CHANNELS 3 Zrotation Yrotation Xrotation
						End Site
						{
							OFFSET 0.000000 0.000000 0.000000
						}
					}
				}
			}
		}
	}
}
MOTION
Frames: 19
Frame Time: 0.008333
0.457878 15.882125 1.792503 1.778068 43.145225 30.306310 -9.469249 1.642450 -6.519210 -19.336439 21.614939 -44.712386 -3.151381 4.297110 53.805004 3.222630 13.928367 -25.429733 -4.694400 0.000000 -45.425200 8.175443 1.371787 -0.910308 21.850654 -2.491791 -69.698476 2.245767 -4.512857 47.386922 -5.706113 -18.116839 -20.153842 -177.670300 -0.000000 -13.297200
0.520567 15.882860 1.877827 2.010634 42.845008 30.401101 -9.565542 1.678647 -6.479370 -19.210653 21.625850 -43.958547 -3.149985 4.217123 53.386247 3.271832 14.308814 -25.351297 -4.783901 -0.000000 -45.570500 8.160682 1.393621 -0.924091 21.563222 -2.460533 -69.525239 2.144275 -4.539703 48.099041 -5.738748 -18.244520 -20.544808 -177.493500 0.000000 -13.140600
0.583010 15.885836 1.964511 2.217854 42.527405 30.493482 -9.661693 1.715668 -6.439221 -19.090716 21.659055 -43.236385 -3.148025 4.139088 52.949762 3.316463 14.684586 -25.208058 -4.852100 0.000000 -45.702300 8.141902 1.399919 -0.932517 21.326098 -2.423555 -69.293238 2.062886 -4.551149 48.674720 -5.763156 -18.322453 -20.933660 -177.322900 -0.000000 -12.938700
0.644902 15.891005 2.052848 2.414807 42.197083 30.591862 -9.755700 1.755101 -6.400295 -18.984554 21.714204 -42.543202 -3.144889 4.063055 52.502678 3.353366 15.041305 -24.989197 -4.891000 -0.000001 -45.836001 8.122770 1.393968 -0.935641 21.120232 -2.390171 -69.008569 1.999838 -4.549598 49.124350 -5.778541 -18.347065 -21.322013 -177.159400 0.000000 -12.741200
0.706079 15.898294 2.142932 2.604922 41.857715 30.703308 -9.847645 1.797435 -6.361282 -18.892889 21.788892 -41.891680 -3.140204 3.990713 52.056785 3.379497 15.363518 -24.685632 -4.892400 0.000000 -45.998999 8.103416 1.377455 -0.929265 20.934704 -2.351299 -68.680491 1.952683 -4.535205 49.452636 -5.788299 -18.330490 -21.708839 -177.003400 0.000001 -12.602600
0.766183 15.907630 2.234822 2.808480 41.513030 30.834166 -9.934558 1.844059 -6.324718 -18.823774 21.878350 -41.266435 -3.133076 3.920807 51.615960 3.392730 15.640906 -24.292171 -4.851700 0.000000 -46.209200 8.089280 1.355705 -0.917624 20.747603 -2.326541 -68.321271 1.918180 -4.513216 49.690228 -5.790083 -18.268175 -22.095202 -176.855500 0.000000 -12.527401
0.825261 15.918905 2.328398 3.021545 41.165002 30.989119 -10.017760 1.894410 -6.287638 -18.772336 21.975299 -40.683208 -3.123033 3.855286 51.192984 3.391352 15.862759 -23.805795 -4.764600 0.000000 -46.497600 8.078727 1.329853 -0.896222 20.554604 -2.300305 -67.944831 1.893100 -4.483699 49.846851 -5.788551 -18.179747 -22.475940 -176.716200 0.000001 -12.523500
0.883097 15.931999 2.423450 3.254920 40.814734 31.170961 -10.095566 1.948621 -6.251005 -18.740435 22.071612 -40.131752 -3.109216 3.793368 50.791752 3.374819 16.024782 -23.227511 -4.630700 -0.000000 -46.881300 8.074930 1.303935 -0.868291 20.342453 -2.282531 -67.563182 1.874210 -4.450549 49.949146 -5.783081 -18.068305 -22.848871 -176.585900 0.000000 -12.571699
0.939650 15.946809 2.519636 3.509454 40.461798 31.381111 -10.168051 2.005953 -6.213602 -18.725310 22.157185 -39.612977 -3.090776 3.735345 50.419040 3.343347 16.125457 -22.560195 -4.451600 -0.000000 -47.374700 8.078167 1.280058 -0.834159 20.106293 -2.270577 -67.188114 1.858743 -4.415665 50.014571 -5.775063 -17.943306 -23.209643 -176.465100 -0.000000 -12.649600
0.995059 15.963188 2.616629 3.774597 40.106383 31.618481 -10.237229 2.064446 -6.172336 -18.717215 22.221482 -39.138869 -3.067061 3.682697 50.085334 3.297898 16.165665 -21.810498 -4.230700 -0.000000 -47.980900 8.085601 1.257918 -0.791977 19.853017 -2.250917 -66.828934 1.844752 -4.378812 50.048967 -5.767710 -17.820165 -23.549972 -176.354800 -0.000000 -12.716800
1.049343 15.980984 2.714004 4.045708 39.747770 31.880958 -10.303943 2.122590 -6.125870 -18.710066 22.255356 -38.711351 -3.037414 3.635821 49.796801 3.240005 16.149433 -20.986661 -3.973601 0.000000 -48.684700 8.096146 1.237936 -0.742613 19.586235 -2.219993 -66.491022 1.831003 -4.340633 50.059881 -5.761754 -17.704627 -23.864844 -176.255500 0.000000 -12.740300
1.102413 15.999989 2.811449 4.325226 39.383156 32.166561 -10.367180 2.179741 -6.075224 -18.704642 22.252372 -38.322864 -3.001167 3.594053 49.554593 3.171879 16.085042 -20.096711 -3.686999 0.000000 -49.460100 8.111075 1.221746 -0.689331 19.303282 -2.183957 -66.175894 1.816901 -4.302642 50.056093 -5.755777 -17.593616 -24.153792 -176.167300 0.000000 -12.708201
1.154487 16.019992 2.908623 4.596840 39.013489 32.470403 -10.429872 2.233430 -6.017623 -18.689112 22.207134 -37.988719 -2.958167 3.559240 49.369584 3.095445 15.977231 -19.152271 -3.377700 -0.000000 -50.259700 8.125826 1.206666 -0.630249 19.020418 -2.128589 -65.883219 1.802913 -4.262678 50.028072 -5.752147 -17.495687 -24.411453 -176.090500 0.000000 -12.597400
1.205508 16.040746 3.005297 4.857308 38.637706 32.788337 -10.492047 2.282747 -5.953790 -18.662018 22.118896 -37.708400 -2.908364 3.531458 49.244691 3.012847 15.833193 -18.163523 -3.052600 0.000000 -51.028700 8.139880 1.192295 -0.567077 18.741908 -2.055384 -65.608773 1.789777 -4.220514 49.973498 -5.749872 -17.406525 -24.639117 -176.024900 0.000000 -12.411700
1.255499 16.062015 3.101329 5.102186 38.255848 33.116238 -10.554041 2.326892 -5.884667 -18.621643 21.990909 -37.484470 -2.852024 3.511198 49.184107 2.926013 15.659086 -17.140871 -2.718300 -0.000000 -51.704399 8.152166 1.177604 -0.500652 18.473878 -1.964168 -65.347637 1.778643 -4.175385 49.886413 -5.748375 -17.322178 -24.839218 -175.969800 -0.000001 -12.163800
1.304402 16.083501 3.196650 5.328514 37.868076 33.449763 -10.615852 2.365437 -5.811737 -18.567943 21.829843 -37.318081 -2.789759 3.498707 49.190239 2.836591 15.459589 -16.095326 -2.380900 -0.000000 -52.222300 8.162110 1.161598 -0.431731 18.220472 -1.856135 -65.093469 1.770608 -4.126673 49.762099 -5.746906 -17.237675 -25.016282 -175.924200 -0.000000 -11.875800
1.352176 16.104960 3.291274 5.535381 37.474869 33.784944 -10.677087 2.398334 -5.737168 -18.502693 21.645339 -37.208792 -2.722452 3.494041 49.263667 2.746100 15.239152 -15.037903 -2.046300 0.000000 -52.521700 8.169650 1.143583 -0.361108 17.983830 -1.734044 -64.840336 1.766717 -4.074042 49.597266 -5.744531 -17.147153 -25.176322 -175.886800 -0.000000 -11.576300
1.398698 16.126135 3.385227 5.722959 37.076694 34.117854 -10.737147 2.425771 -5.663358 -18.428641 21.449776 -37.156167 -2.651315 3.497160 49.403248 2.655820 15.001304 -13.979738 -1.719800 -0.000000 -52.569300 8.174980 1.122967 -0.289210 17.764913 -1.600560 -64.583121 1.767582 -4.017404 49.391536 -5.740727 -17.046521 -25.326457 -175.855400 0.000000 -11.298300
1.443955 16.146840 3.478588 5.895139 36.672786 34.445348 -10.794691 2.448507 -5.593270 -18.351665 21.254759 -37.152923 -2.577584 3.507228 49.604707 2.567186 14.750760 -12.934683 -1.406800 0.000000 -52.303200 8.179584 1.099973 -0.217432 17.560091 -1.462890 -64.317742 1.773564 -3.957673 49.149512 -5.733833 -16.928515 -25.473341 -175.829100 0.000000 -11.062000
